<svg xmlns="http://www.w3.org/2000/svg" viewBox="0 0 49.92 48.73"><defs><style>.cls-1{fill:#fff;}</style></defs><g id="Camada_2" data-name="Camada 2"><g id="Camada_1-2" data-name="Camada 1"><path class="cls-1" d="M29.58,36.05c1-.2,1.94-.35,2.84-.57q7.86-1.93,8.4-10c.19-2.75-.07-5.38-1.84-7.63A1.86,1.86,0,0,1,38.59,16a8.91,8.91,0,0,0-.31-5,.75.75,0,0,0-1-.62,23.83,23.83,0,0,0-3,.89c-.88.36-1.67.94-2.52,1.35a1.79,1.79,0,0,1-1.12.2,24.6,24.6,0,0,0-11.32,0,1.65,1.65,0,0,1-1.11-.2,14.56,14.56,0,0,0-5.4-2.23c-.64-.09-1,0-1.21.73a9.53,9.53,0,0,0-.13,5.52.81.81,0,0,1-.09.65C9,20,8.68,23.3,9.25,26.72c.86,5.15,3.93,8.1,9.17,9l1.63.27c-.41,1.07-.8,2.14-1.24,3.2a.93.93,0,0,1-.49.36,5.12,5.12,0,0,1-6.75-2.23,5.16,5.16,0,0,0-3.34-2.53c-.55-.12-1.26-.28-1.54.32-.09.19.51.83.9,1.11a6.48,6.48,0,0,1,2.46,3.1c1,2.68,3.39,3.91,6.21,3.79.79,0,1.58-.13,2.47-.21,0,1.62.06,3.24,0,4.85,0,.83-.92,1.22-1.86.83A34.17,34.17,0,0,1,12,46.29a24.24,24.24,0,0,1-11.87-19A25,25,0,1,1,33.46,48.46a3.51,3.51,0,0,1-.83.22c-1,.1-1.45-.34-1.46-1.31q0-3.19,0-6.4A6.81,6.81,0,0,0,29.58,36.05Z"/><path class="cls-1" d="M14.08,40l.56.58c-.16.1-.36.32-.47.28s-.36-.29-.53-.45Z"/><path class="cls-1" d="M17.77,41.15c-.07-.19-.26-.45-.2-.56a1,1,0,0,1,.58-.38c.1,0,.26.18.39.28L18.1,41Z"/><path class="cls-1" d="M16.45,40.17c.07.2.23.43.18.59a.71.71,0,0,1-.5.37c-.15,0-.32-.21-.48-.33l.46-.44Z"/><path class="cls-1" d="M12.33,38.85a5.92,5.92,0,0,1,.48.73c0,.05-.18.21-.28.31a8.22,8.22,0,0,1-.57-.61A3,3,0,0,1,12.33,38.85Z"/><path class="cls-1" d="M11.18,38.53l-.38-.75c.12-.06.32-.17.34-.15.16.22.29.46.43.69Z"/></g></g></svg>