<svg xmlns="http://www.w3.org/2000/svg" viewBox="0 0 49.3 49.27"><defs><style>.cls-1{fill:#517bbd;}.cls-2{fill:#35ab52;}.cls-3{fill:#e84235;}.cls-4{fill:#fabe08;}</style></defs><g id="Camada_2" data-name="Camada 2"><g id="Camada_1-2" data-name="Camada 1"><path class="cls-1" d="M35.13,35.13c.56-.78,1.26-1.44,1.78-2.25a20.45,20.45,0,0,0,1.46-2.73c.2-.45.14-.57-.38-.57-4.19,0-8.39,0-12.59,0-.76,0-.76,0-.76-.76,0-2.87,0-5.74,0-8.61,0-.45.12-.57.57-.57q11.54,0,23.05,0c.38,0,.59.06.66.48a25.64,25.64,0,0,1,.21,7.47A24.16,24.16,0,0,1,44,39.85a12.39,12.39,0,0,1-2,2.2c-.14-.16-.28-.32-.43-.47Z"/><path class="cls-2" d="M35.13,35.13l6.45,6.45c.15.15.29.31.43.47a22.4,22.4,0,0,1-5.95,4.41,23.84,23.84,0,0,1-12.8,2.76,24.22,24.22,0,0,1-15.75-6.9A2.51,2.51,0,0,1,7.25,42l6.9-6.89a18.43,18.43,0,0,0,3.63,2.62,14.77,14.77,0,0,0,16.87-2.21C34.8,35.39,35,35.26,35.13,35.13Z"/><path class="cls-3" d="M7.24,7.25a21.2,21.2,0,0,1,4.83-3.81A23.19,23.19,0,0,1,20.84.28,24.35,24.35,0,0,1,40.53,5.81c.45.36.86.77,1.29,1.15.19.17.19.29,0,.47q-3.26,3.24-6.49,6.49c-.31.31-.42.05-.59-.1a14.4,14.4,0,0,0-7.58-3.76,14.54,14.54,0,0,0-12.58,3.71c-.14.13-.29.24-.44.37C11.8,11.89,9.52,9.57,7.24,7.25Z"/><path class="cls-4" d="M7.24,7.25c2.28,2.32,4.56,4.64,6.91,6.89-.47.56-1,1.1-1.39,1.68a14.75,14.75,0,0,0,1.07,18.9l.32.4L7.25,42a20.71,20.71,0,0,1-3.77-4.77,24,24,0,0,1-3.43-14A24.22,24.22,0,0,1,7,7.46,2.78,2.78,0,0,1,7.24,7.25Z"/></g></g></svg>