<svg id="Camada_1" data-name="Camada 1" xmlns="http://www.w3.org/2000/svg" viewBox="0 0 1000 1000"><defs><style>.cls-1{fill:#e6e6e6;}</style></defs><path class="cls-1" d="M852.68,254.83c-11.7-22.25-48.25-23.05-61.8-1.77-6.72,10.54-7.53,22.16,2.32,31.48,8.73,8.26,19.14,10.87,29.86,3,2.64-1.94,6.4-4.25,4.62-8.4-1.47-3.41-5.13-2.08-8-2-7.73.26-16.82-.07-16.77-9.66,0-9.18,9.07-12.52,17.25-13.2,11.92-1,20.93,4.53,23.07,16.49,2.8,15.67-.75,31.17-10.63,43.39-24.34,30.08-59.4,38.55-95.38,44.33-3.55.57-7.9.61-5.76-5.1,11-29.32-6.4-49.4-22.56-69.87-4.55-5.77-4.89-11.87-5-19.17-.72-34.41-16.86-77.59-68.65-70.1-10,1.44-17.17-3.16-24.8-8.13C569.79,159.65,526,143.3,476.65,144.81c-25.57.79-34.91,10.25-34.49,36.18.54,33.22,12.87,62.9,28.42,91.46,6.07,11.15,13.1,21.78,19.7,32.65-23.7-16-40.57-37-53.3-61.24-3.54-6.74-7.37-9.13-14.92-9-24.64.45-48.74,4.56-72.56,10.09-72.81,16.92-128.24,57.55-164.18,123.37a327.22,327.22,0,0,0-27.47,68c-5.84,20.56-12,40.53-13.46,61.87-.93,7.39-2.4,14.75-2.7,22.16-4,98.74,21.14,186.19,100.44,251.4,50.28,41.35,108,67.65,172.1,79.47,99.95,18.42,185.33-17.32,240.39-102.39,29.36-45.36,41.74-94.39,18.76-146.46-16.86-38.19-45.08-65.7-85.78-78.25-54.37-16.77-112.55,22.46-122.18,78.72-4.73,27.65-.8,51.35,15.34,73.08,22.09,29.75,52.21,37.6,83.87,21.81,25.15-12.54,36.28-45.39,24.43-70.79-6.12-13.11-19.18-20.5-30.11-16.11-13.11,5.26-12.22,16.64-10.75,27.9a16.41,16.41,0,0,0,.76,2.89c3.44,10.81-3.36,13.32-11.72,14-7.67.6-13.31-3.94-18.13-9.07C499.47,625.59,505,591,530,577c22.25-12.47,46.93-9.72,66.71,7.44,38.07,33,41.84,89.3,8.54,129.24-40.58,48.66-133.42,75.53-199.68,42.2-37.65-18.94-64-49.06-85.63-84.7-14.29-23.57-16.85-48.21-15-75.82,10.56,3.73,14.84,11.71,19.16,19.25,6.18,10.8,11,22.44,17.69,32.88,10.35,16.1,14.5,15.45,24.08-.85,20.23-34.41,42.77-67,74.2-92.51l3.17-2.85.25-.12c8.29-3.47,14.52-9.33,23.13-18.78-12.05,1.78-20.21,2.5-27.45,7.34L436.17,541c-9.71.79-17.65,5.4-24.92,11.49a2.18,2.18,0,0,0-2.08,1.23c-13.63,4.12-22.5,16.39-35.88,20.93-1.07-19.56-9.62-36-21.06-51.36a3.08,3.08,0,0,0-2.19-3.92c.06-4.58-3-9.22.22-13.75,16.53-11.08,32.52-22.93,50.43-31.9,8.64-4.32,16.34-5.15,25.61-1.66,30.35,11.4,60.56,23.35,92.78,28.86,25.34,4.32,50.58,6.84,75.49-2.07,4.56-1.62,11.33-2.89,11-8.4-.35-6.06-7.37-5.38-12-6-19.78-2.59-39.93-3.36-58.79-10.73-16.45-6.43-33.1-12.8-45.21-30.13a449.42,449.42,0,0,1,59.33-7.37c38.06-2.09,76.47-6,109.3-26.34,25.28-15.65,52.57-21.13,80.23-28.55,45.13-12.09,91.32-23.48,114.22-72.42C861.5,290,861.88,272.31,852.68,254.83ZM669.29,278.27c-1.93,35.85-21.72,58.26-55.56,57.1-36.11-1.23-53-17.3-54.58-57.94-1.26-32,23.42-56.58,54.56-56.73S671,246.31,669.29,278.27Z"/><path class="cls-1" d="M637.7,281c-5.79-3.76-7.34-8.95-6.07-14.74,4.62-12.86-4-10.82-9.57-8.36-9.76,4.28-14.3,12.26-9.67,23,4.45,10.31,12.59,13.59,23.07,9.87C640.48,289,645.51,286.09,637.7,281Z"/></svg>