<svg xmlns="http://www.w3.org/2000/svg" viewBox="0 0 132.44 137.79">
  <g id="Camada_2" data-name="Camada 2">
    <g id="Camada_2-2" data-name="Camada 2">
      <path className="fill-[#656567]" d="M47.86,1.29A164.78,164.78,0,0,1,96.56,2.4q5.46,1,10.82,2.4c4.56,1.21,25.06,5.42,25.06,11.76,0,40.7-12.43,81-48.48,104.09-10.93,7-21.09,6.95-32.1.36C34,110.33,21.45,93.44,13.43,74.5A178.17,178.17,0,0,1,4.16,45.05C2.63,38.36-3.46,22,2.7,16.56c7.89-7,17.87-9.88,28-12.22A171.42,171.42,0,0,1,47.86,1.29ZM68,13.49c-15.78-.62-30.87,2.36-45.75,6.94-4.19,1.29-5.81,3.71-5.68,8a120.23,120.23,0,0,0,7.11,37.09C30,82.92,40.09,97.27,55.78,107.61c8.74,5.76,16.6,5.77,24.58-.83.38-.32.81-.58,1.2-.89,26-19.84,36.08-47.16,37-78.81.11-3.9-2.2-5.54-5.53-6.59C98.3,15.84,83.39,12.78,68,13.49Z"/>
      <path className="fill-[#4c4b4e]" d="M62.21,137.32c-14.3-2.79-25-14.62-33-26.17C19.68,97.37,15,82.67,10.46,66.87c2.53,6.48,3.8,9.56,4.71,11.57a37.53,37.53,0,0,0,2.54,4.71c14.85,23.6,17,25.87,32.3,36.57a36.23,36.23,0,0,0,4.51,2.72c10.1,5,19.39,4.65,29.44-1.79,16.44-10.54,27.57-23.74,35.89-41.26C121,76.87,122.21,74,124.12,69c-2.46,6.43-3.63,13.37-6.2,19.83a99.16,99.16,0,0,1-21.06,32.54C90.54,127.82,82.92,134,74.18,136.7A24.13,24.13,0,0,1,62.21,137.32Z"/>
      <path className="fill-[#4e4e4d]" d="M68,13.49c15.36-.71,30.27,2.35,45,7,3.33,1.05,5.64,2.69,5.53,6.59-.87,31.65-10.94,59-36.95,78.81-.39.31-.82.57-1.2.89-8,6.6-15.84,6.59-24.58.83C40.09,97.27,30,82.92,23.71,65.56A120.23,120.23,0,0,1,16.6,28.47c-.13-4.33,1.49-6.75,5.68-8C37.16,15.85,52.25,12.87,68,13.49Z"/>
    </g>
  </g>
</svg>