<svg xmlns="http://www.w3.org/2000/svg" viewBox="0 0 129.44 149.34"><g id="Camada_2" data-name="Camada 2"><g id="Camada_1-2" data-name="Camada 1"><path className="fill-[#656567]" d="M31.12,1C35.15-.78,40.83.34,45,.34l22,0,16.66,0c6.23,0,12-2,16.44,3.4,7.79,9.32,14.75,19.47,22.7,28.6,3.32,3.83,5.9,7.53,6.51,12.74,1,8.42-3.07,17.53-4.91,25.66-1.9,8.35-3.3,16.77-4.87,25.18-.62,3.31-.88,13.38-4.09,15.2-13.29,7.51-26.68,14.84-39.81,22.62-7.17,4.26-13.72,4.44-21,.2-14-8.17-28.36-15.88-42.56-23.78-.48-1.75-1.09-3.47-1.42-5.25-3.18-17-6.3-34.11-9.58-51.16C.37,50.23-.31,46.63.15,43.07.68,38.9,3,36.63,5.52,33.6c3.25-3.89,6.19-8.16,9.27-12.19C19.4,15.39,23.55,8.7,28.47,3A7.51,7.51,0,0,1,31.12,1ZM50.7,13.45a37.18,37.18,0,0,1-4.48,0c-5.86-.71-10.07,1.37-13.48,6.36C27.68,27.19,22,34.19,16.6,41.34c-1.89,2.49-3,5.1-2.35,8.33q4.37,23.53,8.59,47.1A8.36,8.36,0,0,0,27.31,103q16.82,9.26,33.57,18.64a7.5,7.5,0,0,0,8,.07q15.8-9,31.67-18a9.67,9.67,0,0,0,4.88-7.1c3.12-15.82,6.24-31.64,9.48-47.44A8.86,8.86,0,0,0,113,41.31c-6.17-7.63-12.36-15.23-18.36-23a9.87,9.87,0,0,0-8.56-4.09C74.29,14.3,62.49,14.32,50.7,13.45Z"/><path className="fill-[#4c4b4e]" d="M58.62,148.71c-6.4-1.86-11.85-6.78-17.52-10.15-6.59-3.92-13.2-7.81-19.9-11.56s-9.55-9.34-9.15-16.83c14.2,7.9,28.52,15.61,42.56,23.78,7.28,4.24,13.83,4.06,21-.2,13.13-7.78,26.89-15.36,40.17-22.87-.09,7.79-3.91,13.53-10.79,17.46-5,2.85-10,5.69-15,8.58-4.78,2.77-9.14,6.34-14.14,8.85C70.55,148.45,64.48,150.41,58.62,148.71Z"/><path className="fill-[#4e4e4d]" d="M50.7,13.45c11.79.87,23.59.85,35.39.78a9.87,9.87,0,0,1,8.56,4.09c6,7.76,12.19,15.36,18.36,23a8.86,8.86,0,0,1,1.91,7.88c-3.24,15.8-6.36,31.62-9.48,47.44a9.67,9.67,0,0,1-4.88,7.1q-15.89,8.91-31.67,18a7.5,7.5,0,0,1-8-.07Q44.14,112.21,27.31,103a8.36,8.36,0,0,1-4.47-6.21q-4.23-23.56-8.59-47.1c-.6-3.23.46-5.84,2.35-8.33C22,34.19,27.68,27.19,32.74,19.78c3.41-5,7.62-7.07,13.48-6.36A37.18,37.18,0,0,0,50.7,13.45Z"/></g></g></svg>