<svg width="34" height="34" viewBox="0 0 34 34" fill="none"
  xmlns="http://www.w3.org/2000/svg">
  <path d="M17.0002 33.6663C14.6946 33.6663 12.5279 33.2288 10.5002 32.3538C8.47238 31.4788 6.7085 30.2913 5.2085 28.7913C3.7085 27.2913 2.521 25.5275 1.646 23.4997C0.770996 21.4719 0.333496 19.3052 0.333496 16.9997C0.333496 14.6941 0.770996 12.5275 1.646 10.4997C2.521 8.4719 3.7085 6.70801 5.2085 5.20801C6.7085 3.70801 8.47238 2.52051 10.5002 1.64551C12.5279 0.770508 14.6946 0.333008 17.0002 0.333008C19.3057 0.333008 21.4724 0.770508 23.5002 1.64551C25.5279 2.52051 27.2918 3.70801 28.7918 5.20801C30.2918 6.70801 31.4793 8.4719 32.3543 10.4997C33.2293 12.5275 33.6668 14.6941 33.6668 16.9997C33.6668 19.3052 33.2293 21.4719 32.3543 23.4997C31.4793 25.5275 30.2918 27.2913 28.7918 28.7913C27.2918 30.2913 25.5279 31.4788 23.5002 32.3538C21.4724 33.2288 19.3057 33.6663 17.0002 33.6663ZM17.0002 30.333C20.7224 30.333 23.8752 29.0413 26.4585 26.458C29.0418 23.8747 30.3335 20.7219 30.3335 16.9997C30.3335 13.2775 29.0418 10.1247 26.4585 7.54134C23.8752 4.95801 20.7224 3.66634 17.0002 3.66634C13.2779 3.66634 10.1252 4.95801 7.54183 7.54134C4.9585 10.1247 3.66683 13.2775 3.66683 16.9997C3.66683 20.7219 4.9585 23.8747 7.54183 26.458C10.1252 29.0413 13.2779 30.333 17.0002 30.333ZM17.0002 26.9997C14.2224 26.9997 11.8613 26.0275 9.91683 24.083C7.97238 22.1386 7.00016 19.7775 7.00016 16.9997C7.00016 14.2219 7.97238 11.8608 9.91683 9.91634C11.8613 7.9719 14.2224 6.99967 17.0002 6.99967C19.7779 6.99967 22.1391 7.9719 24.0835 9.91634C26.0279 11.8608 27.0002 14.2219 27.0002 16.9997C27.0002 19.7775 26.0279 22.1386 24.0835 24.083C22.1391 26.0275 19.7779 26.9997 17.0002 26.9997ZM17.0002 23.6663C18.8335 23.6663 20.4029 23.0136 21.7085 21.708C23.0141 20.4025 23.6668 18.833 23.6668 16.9997C23.6668 15.1663 23.0141 13.5969 21.7085 12.2913C20.4029 10.9858 18.8335 10.333 17.0002 10.333C15.1668 10.333 13.5974 10.9858 12.2918 12.2913C10.9863 13.5969 10.3335 15.1663 10.3335 16.9997C10.3335 18.833 10.9863 20.4025 12.2918 21.708C13.5974 23.0136 15.1668 23.6663 17.0002 23.6663ZM17.0002 20.333C16.0835 20.333 15.2988 20.0066 14.646 19.3538C13.9932 18.7011 13.6668 17.9163 13.6668 16.9997C13.6668 16.083 13.9932 15.2983 14.646 14.6455C15.2988 13.9927 16.0835 13.6663 17.0002 13.6663C17.9168 13.6663 18.7016 13.9927 19.3543 14.6455C20.0071 15.2983 20.3335 16.083 20.3335 16.9997C20.3335 17.9163 20.0071 18.7011 19.3543 19.3538C18.7016 20.0066 17.9168 20.333 17.0002 20.333Z" fill="#1C1B1F"/>
</svg>
