<svg width="34" height="33" viewBox="0 0 34 33" fill="none"
  xmlns="http://www.w3.org/2000/svg">
  <path d="M31.4167 12.1761L29.0833 9.87389L30.3333 8.59945L25 3.33722L23.7083 4.57056L21.3333 2.22723L22.5833 0.952781C23.2222 0.322411 24.0139 0.0140774 24.9583 0.0277811C25.9028 0.0414848 26.6944 0.363522 27.3333 0.993892L32.7083 6.29722C33.3472 6.92759 33.6667 7.70185 33.6667 8.62C33.6667 9.53815 33.3472 10.3124 32.7083 10.9428L31.4167 12.1761ZM11.4167 31.9506C10.7778 32.5809 9.99306 32.8961 9.0625 32.8961C8.13194 32.8961 7.34722 32.5809 6.70833 31.9506L1.33333 26.6472C0.694444 26.0169 0.375 25.2426 0.375 24.3244C0.375 23.4063 0.694444 22.632 1.33333 22.0017L2.58333 20.7683L4.95833 23.1117L3.66667 24.345L9.04167 29.6483L10.2917 28.3739L12.6667 30.7172L11.4167 31.9506ZM27.9583 18.1372L30.3333 15.7939L17.7083 3.33722L15.3333 5.68056L27.9583 18.1372ZM16.2917 29.6483L18.6667 27.2639L6.08333 14.8483L3.66667 17.1917L16.2917 29.6483ZM16.0417 20.0283L20.625 15.5472L17.9583 12.9161L13.4167 17.4383L16.0417 20.0283ZM18.6667 31.9506C18.0278 32.5809 17.2361 32.8961 16.2917 32.8961C15.3472 32.8961 14.5556 32.5809 13.9167 31.9506L1.33333 19.535C0.694444 18.9046 0.375 18.1235 0.375 17.1917C0.375 16.2598 0.694444 15.4787 1.33333 14.8483L3.70833 12.505C4.34722 11.8746 5.13194 11.5594 6.0625 11.5594C6.99306 11.5594 7.77778 11.8746 8.41667 12.505L11.0417 15.095L15.625 10.5728L13 8.02389C12.3611 7.39352 12.0417 6.61241 12.0417 5.68056C12.0417 4.74871 12.3611 3.9676 13 3.33722L15.375 0.993892C16.0139 0.363522 16.7986 0.0483367 17.7292 0.0483367C18.6597 0.0483367 19.4444 0.363522 20.0833 0.993892L32.7083 13.4506C33.3472 14.0809 33.6667 14.8552 33.6667 15.7733C33.6667 16.6915 33.3472 17.4657 32.7083 18.0961L30.3333 20.4394C29.6944 21.0698 28.9028 21.385 27.9583 21.385C27.0139 21.385 26.2222 21.0698 25.5833 20.4394L23 17.8494L18.4167 22.3717L21.0417 24.9617C21.6806 25.592 22 26.3663 22 27.2844C22 28.2026 21.6806 28.9769 21.0417 29.6072L18.6667 31.9506Z" fill="#1C1B1F"/>
</svg>
