<svg width="30" height="34" viewBox="0 0 30 34" fill="none"
  xmlns="http://www.w3.org/2000/svg">
  <path d="M3.33333 34.0003C2.41667 34.0003 1.63194 33.6739 0.979167 33.0212C0.326389 32.3684 0 31.5837 0 30.667V7.33366C0 6.41699 0.326389 5.63227 0.979167 4.97949C1.63194 4.32671 2.41667 4.00033 3.33333 4.00033H10.2917C10.5972 3.0281 11.1944 2.22949 12.0833 1.60449C12.9722 0.979492 13.9444 0.666992 15 0.666992C16.1111 0.666992 17.1042 0.979492 17.9792 1.60449C18.8542 2.22949 19.4444 3.0281 19.75 4.00033H26.6667C27.5833 4.00033 28.3681 4.32671 29.0208 4.97949C29.6736 5.63227 30 6.41699 30 7.33366V30.667C30 31.5837 29.6736 32.3684 29.0208 33.0212C28.3681 33.6739 27.5833 34.0003 26.6667 34.0003H3.33333ZM3.33333 30.667H26.6667V7.33366H23.3333V12.3337H6.66667V7.33366H3.33333V30.667ZM15 7.33366C15.4722 7.33366 15.8681 7.17394 16.1875 6.85449C16.5069 6.53505 16.6667 6.13921 16.6667 5.66699C16.6667 5.19477 16.5069 4.79894 16.1875 4.47949C15.8681 4.16005 15.4722 4.00033 15 4.00033C14.5278 4.00033 14.1319 4.16005 13.8125 4.47949C13.4931 4.79894 13.3333 5.19477 13.3333 5.66699C13.3333 6.13921 13.4931 6.53505 13.8125 6.85449C14.1319 7.17394 14.5278 7.33366 15 7.33366Z" fill="#1C1B1F"/>
</svg>
