<svg width="34" height="34" viewBox="0 0 34 34" fill="none"
  xmlns="http://www.w3.org/2000/svg">
  <path d="M6.41683 26.083C8.05572 24.9071 9.7409 23.9974 11.4724 23.3538C13.2039 22.7103 15.0465 22.3886 17.0002 22.3886C18.9539 22.3886 20.8011 22.7103 22.5418 23.3538C24.2826 23.9974 25.9724 24.9071 27.6113 26.083C28.7502 24.7034 29.5812 23.2636 30.1043 21.7636C30.6275 20.2636 30.8891 18.6756 30.8891 16.9997C30.8891 13.083 29.5534 9.78902 26.8821 7.11772C24.2108 4.44641 20.9168 3.11076 17.0002 3.11076C13.0835 3.11076 9.78951 4.44641 7.11821 7.11772C4.4469 9.78902 3.11125 13.083 3.11125 16.9997C3.11125 18.6756 3.37745 20.2636 3.90987 21.7636C4.44229 23.2636 5.27794 24.7034 6.41683 26.083ZM16.995 18.3886C15.3781 18.3886 14.0164 17.8336 12.9099 16.7237C11.8034 15.6138 11.2502 14.2503 11.2502 12.6334C11.2502 11.0165 11.8051 9.65477 12.915 8.5483C14.025 7.4418 15.3884 6.88855 17.0053 6.88855C18.6222 6.88855 19.984 7.44352 21.0905 8.55347C22.1969 9.66338 22.7502 11.0268 22.7502 12.6437C22.7502 14.2607 22.1952 15.6224 21.0853 16.7288C19.9753 17.8353 18.6119 18.3886 16.995 18.3886ZM17.0132 33.6663C14.7175 33.6663 12.5557 33.2288 10.528 32.3538C8.50018 31.4788 6.73165 30.2867 5.22237 28.7775C3.71312 27.2682 2.521 25.5018 1.646 23.4784C0.770996 21.4549 0.333496 19.2929 0.333496 16.9923C0.333496 14.6917 0.770996 12.5321 1.646 10.5136C2.521 8.49505 3.71312 6.73116 5.22237 5.22188C6.73165 3.71263 8.49801 2.52051 10.5215 1.64551C12.5449 0.770508 14.7069 0.333008 17.0075 0.333008C19.3082 0.333008 21.4678 0.770508 23.4863 1.64551C25.5048 2.52051 27.2687 3.71263 28.778 5.22188C30.2872 6.73116 31.4793 8.49535 32.3543 10.5145C33.2293 12.5336 33.6668 14.691 33.6668 16.9867C33.6668 19.2824 33.2293 21.4441 32.3543 23.4719C31.4793 25.4997 30.2872 27.2682 28.778 28.7775C27.2687 30.2867 25.5045 31.4788 23.4854 32.3538C21.4663 33.2288 19.3089 33.6663 17.0132 33.6663ZM17.0002 30.8886C18.5094 30.8886 19.9677 30.6687 21.3752 30.2288C22.7826 29.789 24.1391 29.0645 25.4446 28.0552C24.1391 27.1201 22.778 26.4048 21.3613 25.9094C19.9446 25.414 18.4909 25.1663 17.0002 25.1663C15.5094 25.1663 14.0557 25.414 12.639 25.9094C11.2224 26.4048 9.86126 27.1201 8.55571 28.0552C9.86126 29.0645 11.2177 29.789 12.6252 30.2288C14.0326 30.6687 15.4909 30.8886 17.0002 30.8886ZM17.0002 15.6108C17.8705 15.6108 18.5835 15.333 19.1391 14.7775C19.6946 14.2219 19.9724 13.5089 19.9724 12.6386C19.9724 11.7682 19.6946 11.0552 19.1391 10.4997C18.5835 9.94412 17.8705 9.66634 17.0002 9.66634C16.1298 9.66634 15.4168 9.94412 14.8612 10.4997C14.3057 11.0552 14.0279 11.7682 14.0279 12.6386C14.0279 13.5089 14.3057 14.2219 14.8612 14.7775C15.4168 15.333 16.1298 15.6108 17.0002 15.6108Z" fill="#1C1B1F"/>
</svg>
