<svg xmlns="http://www.w3.org/2000/svg" viewBox="0 0 595.71 402.02"><defs><style>.cls-1{fill:#5e25da;}</style></defs><g id="Camada_2" data-name="Camada 2"><g id="Camada_1-2" data-name="Camada 1"><path class="cls-1" d="M289.81,329.84a464.45,464.45,0,0,1,106.83,12.07,67.78,67.78,0,0,1,16.75,6.29c13.1,7,19.53,18.87,16.92,30.93-2.41,11.18-14.6,21.14-27.72,22.53a52.76,52.76,0,0,1-29.16-4.72,139.63,139.63,0,0,1-14.86-8.13c-28.26-18.26-59.67-27.15-92.66-31.31-30.6-3.85-61.08-2-91.6,1.51-35.68,4.1-71.27,9.54-107.37,8.66-10.68-.26-21.26-1.2-31.59-4a62.71,62.71,0,0,1-10.25-3.78C4.4,350.16-4.1,331.71,1.87,309.56,6.56,292.15,15.76,277.29,28,264.17a202,202,0,0,1,26.65-24.09C104,203,143.77,157.43,175.77,104.77,188,84.59,201,64.87,211.17,43.48,216.6,32.07,223,21.08,232,12,243.43.45,256.71-3,272.14,2.76c18.24,6.87,25.61,22.29,19.48,40.92-2.66,8.07-7.38,14.83-13.25,20.89-11.63,12-25,21.87-38.71,31.39-14.47,10.08-29.24,19.76-42.53,31.44-9.8,8.61-18.79,17.93-26,28.87a72.36,72.36,0,0,0-11.61,29.46c-1.55,10.56,3,15.09,13.62,13.15a78.81,78.81,0,0,0,21.55-7.61c19.55-10,39-20.12,57-32.84,12.49-8.83,25.35-17.1,38.37-25.17,22-13.61,40.36-31.49,57.38-50.79,11.68-13.23,23-26.76,34.9-39.8,11-12.07,23-23.16,37.17-31.57,10.78-6.4,22.14-10.52,35-9.59C481.37,3.44,494,26.26,481.29,50.07c-4.79,9-11.66,16.1-19.71,22.24-13.37,10.19-28.53,17-44,23.18a684,684,0,0,0-145.07,78.87c-8.71,6.2-18.48,10.52-27.83,15.57-9.95,5.37-20,10.65-28.14,18.73-12.06,12-13,24.93-3,38.45,5.91,8,14.48,10.12,23.68,10.7,17.47,1.11,34.4-2.43,51.37-5.94,43.35-9,86-20.2,126.74-37.88,17.7-7.68,34.56-17,51.89-25.45,19.46-9.46,39.18-18.28,60.76-21.8a91.38,91.38,0,0,1,43.41,3c26.15,8.45,32.69,38.72,12.45,57-9.48,8.57-20.87,12.88-33.25,14.74a118.64,118.64,0,0,1-18.89,1.61c-55.13-.69-109.58,6.34-163.83,14.86-30.87,4.85-61,13.33-90.9,22.45a96.9,96.9,0,0,0-32.58,16.87c-12.14,9.72-11.24,21,2.27,28.4a34.42,34.42,0,0,0,14.21,4.24C270.51,330.64,280.15,330.25,289.81,329.84Z"/></g></g></svg>